<svg xmlns="http://www.w3.org/2000/svg" xmlns:inkscape="http://www.inkscape.org/namespaces/inkscape" width="1640" height="680" viewBox="0 0 433.91666 179.91666">
  <g id="grille" inkscape:groupmode="layer" inkscape:label="下の縁のすき間の線">
    <path id="grille-1" style="fill:none;stroke:#404040;stroke-width:0.529167;stroke-linecap:butt;stroke-linejoin:miter;stroke-dasharray:none;stroke-opacity:1" transform="matrix(1,0,0,1,81.557198,-105.50975)"
          d="M -70.205171 267.19596 v -8.14524" />
    <path id="grille-2" style="fill:none;stroke:#404040;stroke-width:0.529167;stroke-linecap:butt;stroke-linejoin:miter;stroke-dasharray:none;stroke-opacity:1" transform="matrix(1,0,0,1,81.557198,-105.50975)"
          d="M -67.29139 267.19596 v -8.14524" />
    <path id="grille-3" style="fill:none;stroke:#404040;stroke-width:0.529167;stroke-linecap:butt;stroke-linejoin:miter;stroke-dasharray:none;stroke-opacity:1" transform="matrix(1,0,0,1,81.557198,-105.50975)"
          d="M -64.377609 267.19596 v -8.14524" />
    <path id="grille-4" style="fill:none;stroke:#404040;stroke-width:0.529167;stroke-linecap:butt;stroke-linejoin:miter;stroke-dasharray:none;stroke-opacity:1" transform="matrix(1,0,0,1,81.557198,-105.50975)"
          d="M -61.463828 267.19596 v -8.14524" />
    <path id="grille-5" style="fill:none;stroke:#404040;stroke-width:0.529167;stroke-linecap:butt;stroke-linejoin:miter;stroke-dasharray:none;stroke-opacity:1" transform="matrix(1,0,0,1,81.557198,-105.50975)"
          d="M -58.550047 267.19596 v -8.14524" />
    <path id="grille-6" style="fill:none;stroke:#404040;stroke-width:0.529167;stroke-linecap:butt;stroke-linejoin:miter;stroke-dasharray:none;stroke-opacity:1" transform="matrix(1,0,0,1,81.557198,-105.50975)"
          d="M -55.636266 267.19596 v -8.14524" />
    <path id="grille-7" style="fill:none;stroke:#404040;stroke-width:0.529167;stroke-linecap:butt;stroke-linejoin:miter;stroke-dasharray:none;stroke-opacity:1" transform="matrix(1,0,0,1,81.557198,-105.50975)"
          d="M 28.863385 267.19596 v -8.14524" />
    <path id="grille-8" style="fill:none;stroke:#404040;stroke-width:0.529167;stroke-linecap:butt;stroke-linejoin:miter;stroke-dasharray:none;stroke-opacity:1" transform="matrix(1,0,0,1,81.557198,-105.50975)"
          d="M 31.777166 267.19596 v -8.14524" />
    <path id="grille-9" style="fill:none;stroke:#404040;stroke-width:0.529167;stroke-linecap:butt;stroke-linejoin:miter;stroke-dasharray:none;stroke-opacity:1" transform="matrix(1,0,0,1,81.557198,-105.50975)"
          d="M 34.690948 267.19596 v -8.14524" />
    <path id="grille-10" style="fill:none;stroke:#404040;stroke-width:0.529167;stroke-linecap:butt;stroke-linejoin:miter;stroke-dasharray:none;stroke-opacity:1" transform="matrix(1,0,0,1,81.557198,-105.50975)"
          d="M 37.604729 267.19596 v -8.14524" />
    <path id="grille-11" style="fill:none;stroke:#404040;stroke-width:0.529167;stroke-linecap:butt;stroke-linejoin:miter;stroke-dasharray:none;stroke-opacity:1" transform="matrix(1,0,0,1,81.557198,-105.50975)"
          d="M 40.51851 267.19596 v -8.14524" />
    <path id="grille-12" style="fill:none;stroke:#404040;stroke-width:0.529167;stroke-linecap:butt;stroke-linejoin:miter;stroke-dasharray:none;stroke-opacity:1" transform="matrix(1,0,0,1,81.557198,-105.50975)"
          d="M 43.432291 267.19596 v -8.14524" />
    <path id="grille-13" style="fill:none;stroke:#404040;stroke-width:0.529167;stroke-linecap:butt;stroke-linejoin:miter;stroke-dasharray:none;stroke-opacity:1" transform="matrix(1,0,0,1,81.557198,-105.50975)"
          d="M 46.346072 267.19596 v -8.14524" />
    <path id="grille-14" style="fill:none;stroke:#404040;stroke-width:0.529167;stroke-linecap:butt;stroke-linejoin:miter;stroke-dasharray:none;stroke-opacity:1" transform="matrix(1,0,0,1,81.557198,-105.50975)"
          d="M 49.259853 267.19596 v -8.14524" />
    <path id="grille-15" style="fill:none;stroke:#404040;stroke-width:0.529167;stroke-linecap:butt;stroke-linejoin:miter;stroke-dasharray:none;stroke-opacity:1" transform="matrix(1,0,0,1,81.557198,-105.50975)"
          d="M 52.173634 267.19596 v -8.14524" />
    <path id="grille-16" style="fill:none;stroke:#404040;stroke-width:0.529167;stroke-linecap:butt;stroke-linejoin:miter;stroke-dasharray:none;stroke-opacity:1" transform="matrix(1,0,0,1,81.557198,-105.50975)"
          d="M 55.087415 267.19596 v -8.14524" />
    <path id="grille-17" style="fill:none;stroke:#404040;stroke-width:0.529167;stroke-linecap:butt;stroke-linejoin:miter;stroke-dasharray:none;stroke-opacity:1" transform="matrix(1,0,0,1,81.557198,-105.50975)"
          d="M 58.001196 267.19596 v -8.14524" />
    <path id="grille-18" style="fill:none;stroke:#404040;stroke-width:0.529167;stroke-linecap:butt;stroke-linejoin:miter;stroke-dasharray:none;stroke-opacity:1" transform="matrix(1,0,0,1,81.557198,-105.50975)"
          d="M 60.914977 267.19596 v -8.14524" />
    <path id="grille-19" style="fill:none;stroke:#404040;stroke-width:0.529167;stroke-linecap:butt;stroke-linejoin:miter;stroke-dasharray:none;stroke-opacity:1" transform="matrix(1,0,0,1,81.557198,-105.50975)"
          d="M 63.828758 267.19596 v -8.14524" />
    <path id="grille-20" style="fill:none;stroke:#404040;stroke-width:0.529167;stroke-linecap:butt;stroke-linejoin:miter;stroke-dasharray:none;stroke-opacity:1" transform="matrix(1,0,0,1,81.557198,-105.50975)"
          d="M 66.742539 267.19596 v -8.14524" />
    <path id="grille-21" style="fill:none;stroke:#404040;stroke-width:0.529167;stroke-linecap:butt;stroke-linejoin:miter;stroke-dasharray:none;stroke-opacity:1" transform="matrix(1,0,0,1,81.557198,-105.50975)"
          d="M 69.65632 267.19596 v -8.14524" />
    <path id="grille-22" style="fill:none;stroke:#404040;stroke-width:0.529167;stroke-linecap:butt;stroke-linejoin:miter;stroke-dasharray:none;stroke-opacity:1" transform="matrix(1,0,0,1,81.557198,-105.50975)"
          d="M 72.570101 267.19596 v -8.14524" />
    <path id="grille-23" style="fill:none;stroke:#404040;stroke-width:0.529167;stroke-linecap:butt;stroke-linejoin:miter;stroke-dasharray:none;stroke-opacity:1" transform="matrix(1,0,0,1,81.557198,-105.50975)"
          d="M 75.483883 267.19596 v -8.14524" />
    <path id="grille-24" style="fill:none;stroke:#404040;stroke-width:0.529167;stroke-linecap:butt;stroke-linejoin:miter;stroke-dasharray:none;stroke-opacity:1" transform="matrix(1,0,0,1,81.557198,-105.50975)"
          d="M 78.397664 267.19596 v -8.14524" />
    <path id="grille-25" style="fill:none;stroke:#404040;stroke-width:0.529167;stroke-linecap:butt;stroke-linejoin:miter;stroke-dasharray:none;stroke-opacity:1" transform="matrix(1,0,0,1,81.557198,-105.50975)"
          d="M 81.311445 267.19596 v -8.14524" />
    <path id="grille-26" style="fill:none;stroke:#404040;stroke-width:0.529167;stroke-linecap:butt;stroke-linejoin:miter;stroke-dasharray:none;stroke-opacity:1" transform="matrix(1,0,0,1,81.557198,-105.50975)"
          d="M 84.225226 267.19596 v -8.14524" />
    <path id="grille-27" style="fill:none;stroke:#404040;stroke-width:0.529167;stroke-linecap:butt;stroke-linejoin:miter;stroke-dasharray:none;stroke-opacity:1" transform="matrix(1,0,0,1,81.557198,-105.50975)"
          d="M 87.139007 267.19596 v -8.14524" />
    <path id="grille-28" style="fill:none;stroke:#404040;stroke-width:0.529167;stroke-linecap:butt;stroke-linejoin:miter;stroke-dasharray:none;stroke-opacity:1" transform="matrix(1,0,0,1,81.557198,-105.50975)"
          d="M 90.052788 267.19596 v -8.14524" />
    <path id="grille-29" style="fill:none;stroke:#404040;stroke-width:0.529167;stroke-linecap:butt;stroke-linejoin:miter;stroke-dasharray:none;stroke-opacity:1" transform="matrix(1,0,0,1,81.557198,-105.50975)"
          d="M 92.966569 267.19596 v -8.14524" />
    <path id="grille-30" style="fill:none;stroke:#404040;stroke-width:0.529167;stroke-linecap:butt;stroke-linejoin:miter;stroke-dasharray:none;stroke-opacity:1" transform="matrix(1,0,0,1,81.557198,-105.50975)"
          d="M 95.88035 267.19596 v -8.14524" />
    <path id="grille-31" style="fill:none;stroke:#404040;stroke-width:0.529167;stroke-linecap:butt;stroke-linejoin:miter;stroke-dasharray:none;stroke-opacity:1" transform="matrix(1,0,0,1,81.557198,-105.50975)"
          d="M 98.794131 267.19596 v -8.14524" />
    <path id="grille-32" style="fill:none;stroke:#404040;stroke-width:0.529167;stroke-linecap:butt;stroke-linejoin:miter;stroke-dasharray:none;stroke-opacity:1" transform="matrix(1,0,0,1,81.557198,-105.50975)"
          d="M 101.70791 267.19596 v -8.14524" />
    <path id="grille-33" style="fill:none;stroke:#404040;stroke-width:0.529167;stroke-linecap:butt;stroke-linejoin:miter;stroke-dasharray:none;stroke-opacity:1" transform="matrix(1,0,0,1,81.557198,-105.50975)"
          d="M 104.62169 267.19596 v -8.14524" />
    <path id="grille-34" style="fill:none;stroke:#404040;stroke-width:0.529167;stroke-linecap:butt;stroke-linejoin:miter;stroke-dasharray:none;stroke-opacity:1" transform="matrix(1,0,0,1,81.557198,-105.50975)"
          d="M 107.53547 267.19596 v -8.14524" />
    <path id="grille-35" style="fill:none;stroke:#404040;stroke-width:0.529167;stroke-linecap:butt;stroke-linejoin:miter;stroke-dasharray:none;stroke-opacity:1" transform="matrix(1,0,0,1,81.557198,-105.50975)"
          d="M 110.44926 267.19596 v -8.14524" />
    <path id="grille-36" style="fill:none;stroke:#404040;stroke-width:0.529167;stroke-linecap:butt;stroke-linejoin:miter;stroke-dasharray:none;stroke-opacity:1" transform="matrix(1,0,0,1,81.557198,-105.50975)"
          d="M 113.36304 267.19596 v -8.14524" />
    <path id="grille-37" style="fill:none;stroke:#404040;stroke-width:0.529167;stroke-linecap:butt;stroke-linejoin:miter;stroke-dasharray:none;stroke-opacity:1" transform="matrix(1,0,0,1,81.557198,-105.50975)"
          d="M 116.27682 267.19596 v -8.14524" />
    <path id="grille-38" style="fill:none;stroke:#404040;stroke-width:0.529167;stroke-linecap:butt;stroke-linejoin:miter;stroke-dasharray:none;stroke-opacity:1" transform="matrix(1,0,0,1,81.557198,-105.50975)"
          d="M 119.1906 267.19596 v -8.14524" />
    <path id="grille-39" style="fill:none;stroke:#404040;stroke-width:0.529167;stroke-linecap:butt;stroke-linejoin:miter;stroke-dasharray:none;stroke-opacity:1" transform="matrix(1,0,0,1,81.557198,-105.50975)"
          d="M 122.10438 267.19596 v -8.14524" />
    <path id="grille-40" style="fill:none;stroke:#404040;stroke-width:0.529167;stroke-linecap:butt;stroke-linejoin:miter;stroke-dasharray:none;stroke-opacity:1" transform="matrix(1,0,0,1,81.557198,-105.50975)"
          d="M 125.01816 267.19596 v -8.14524" />
    <path id="grille-41" style="fill:none;stroke:#404040;stroke-width:0.529167;stroke-linecap:butt;stroke-linejoin:miter;stroke-dasharray:none;stroke-opacity:1" transform="matrix(1,0,0,1,81.557198,-105.50975)"
          d="M 127.93194 267.19596 v -8.14524" />
    <path id="grille-42" style="fill:none;stroke:#404040;stroke-width:0.529167;stroke-linecap:butt;stroke-linejoin:miter;stroke-dasharray:none;stroke-opacity:1" transform="matrix(1,0,0,1,81.557198,-105.50975)"
          d="M 139.58707 267.19596 v -8.14524" />
    <path id="grille-43" style="fill:none;stroke:#404040;stroke-width:0.529167;stroke-linecap:butt;stroke-linejoin:miter;stroke-dasharray:none;stroke-opacity:1" transform="matrix(1,0,0,1,81.557198,-105.50975)"
          d="M 142.50085 267.19596 v -8.14524" />
    <path id="grille-44" style="fill:none;stroke:#404040;stroke-width:0.529167;stroke-linecap:butt;stroke-linejoin:miter;stroke-dasharray:none;stroke-opacity:1" transform="matrix(1,0,0,1,81.557198,-105.50975)"
          d="M 145.41463 267.19596 v -8.14524" />
    <path id="grille-45" style="fill:none;stroke:#404040;stroke-width:0.529167;stroke-linecap:butt;stroke-linejoin:miter;stroke-dasharray:none;stroke-opacity:1" transform="matrix(1,0,0,1,81.557198,-105.50975)"
          d="M 157.06975 267.19596 v -8.14524" />
    <path id="grille-46" style="fill:none;stroke:#404040;stroke-width:0.529167;stroke-linecap:butt;stroke-linejoin:miter;stroke-dasharray:none;stroke-opacity:1" transform="matrix(1,0,0,1,81.557198,-105.50975)"
          d="M 159.98353 267.19596 v -8.14524" />
    <path id="grille-47" style="fill:none;stroke:#404040;stroke-width:0.529167;stroke-linecap:butt;stroke-linejoin:miter;stroke-dasharray:none;stroke-opacity:1" transform="matrix(1,0,0,1,81.557198,-105.50975)"
          d="M 174.55244 267.19596 v -8.14524" />
    <path id="grille-48" style="fill:none;stroke:#404040;stroke-width:0.529167;stroke-linecap:butt;stroke-linejoin:miter;stroke-dasharray:none;stroke-opacity:1" transform="matrix(1,0,0,1,81.557198,-105.50975)"
          d="M 177.46622 267.19596 v -8.14524" />
    <path id="grille-49" style="fill:none;stroke:#404040;stroke-width:0.529167;stroke-linecap:butt;stroke-linejoin:miter;stroke-dasharray:none;stroke-opacity:1" transform="matrix(1,0,0,1,81.557198,-105.50975)"
          d="M 192.03513 267.19596 v -8.14524" />
    <path id="grille-50" style="fill:none;stroke:#404040;stroke-width:0.529167;stroke-linecap:butt;stroke-linejoin:miter;stroke-dasharray:none;stroke-opacity:1" transform="matrix(1,0,0,1,81.557198,-105.50975)"
          d="M 194.94891 267.19596 v -8.14524" />
    <path id="grille-51" style="fill:none;stroke:#404040;stroke-width:0.529167;stroke-linecap:butt;stroke-linejoin:miter;stroke-dasharray:none;stroke-opacity:1" transform="matrix(1,0,0,1,81.557198,-105.50975)"
          d="M 197.86269 267.19596 v -8.14524" />
    <path id="grille-52" style="fill:none;stroke:#404040;stroke-width:0.529167;stroke-linecap:butt;stroke-linejoin:miter;stroke-dasharray:none;stroke-opacity:1" transform="matrix(1,0,0,1,81.557198,-105.50975)"
          d="M 200.77647 267.19596 v -8.14524" />
    <path id="grille-53" style="fill:none;stroke:#404040;stroke-width:0.529167;stroke-linecap:butt;stroke-linejoin:miter;stroke-dasharray:none;stroke-opacity:1" transform="matrix(1,0,0,1,81.557198,-105.50975)"
          d="M 203.69025 267.19596 v -8.14524" />
    <path id="grille-54" style="fill:none;stroke:#404040;stroke-width:0.529167;stroke-linecap:butt;stroke-linejoin:miter;stroke-dasharray:none;stroke-opacity:1" transform="matrix(1,0,0,1,81.557198,-105.50975)"
          d="M 206.60403 267.19596 v -8.14524" />
    <path id="grille-55" style="fill:none;stroke:#404040;stroke-width:0.529167;stroke-linecap:butt;stroke-linejoin:miter;stroke-dasharray:none;stroke-opacity:1" transform="matrix(1,0,0,1,81.557198,-105.50975)"
          d="M 209.51781 267.19596 v -8.14524" />
    <path id="grille-56" style="fill:none;stroke:#404040;stroke-width:0.529167;stroke-linecap:butt;stroke-linejoin:miter;stroke-dasharray:none;stroke-opacity:1" transform="matrix(1,0,0,1,81.557198,-105.50975)"
          d="M 212.43159 267.19596 v -8.14524" />
    <path id="grille-57" style="fill:none;stroke:#404040;stroke-width:0.529167;stroke-linecap:butt;stroke-linejoin:miter;stroke-dasharray:none;stroke-opacity:1" transform="matrix(1,0,0,1,81.557198,-105.50975)"
          d="M 215.34537 267.19596 v -8.14524" />
    <path id="grille-58" style="fill:none;stroke:#404040;stroke-width:0.529167;stroke-linecap:butt;stroke-linejoin:miter;stroke-dasharray:none;stroke-opacity:1" transform="matrix(1,0,0,1,81.557198,-105.50975)"
          d="M 218.25916 267.19596 v -8.14524" />
    <path id="grille-59" style="fill:none;stroke:#404040;stroke-width:0.529167;stroke-linecap:butt;stroke-linejoin:miter;stroke-dasharray:none;stroke-opacity:1" transform="matrix(1,0,0,1,81.557198,-105.50975)"
          d="M 221.17294 267.19596 v -8.14524" />
    <path id="grille-60" style="fill:none;stroke:#404040;stroke-width:0.529167;stroke-linecap:butt;stroke-linejoin:miter;stroke-dasharray:none;stroke-opacity:1" transform="matrix(1,0,0,1,81.557198,-105.50975)"
          d="M 224.08672 267.19596 v -8.14524" />
    <path id="grille-61" style="fill:none;stroke:#404040;stroke-width:0.529167;stroke-linecap:butt;stroke-linejoin:miter;stroke-dasharray:none;stroke-opacity:1" transform="matrix(1,0,0,1,81.557198,-105.50975)"
          d="M 227.0005 267.19596 v -8.14524" />
    <path id="grille-62" style="fill:none;stroke:#404040;stroke-width:0.529167;stroke-linecap:butt;stroke-linejoin:miter;stroke-dasharray:none;stroke-opacity:1" transform="matrix(1,0,0,1,81.557198,-105.50975)"
          d="M 229.91428 267.19596 v -8.14524" />
    <path id="grille-63" style="fill:none;stroke:#404040;stroke-width:0.529167;stroke-linecap:butt;stroke-linejoin:miter;stroke-dasharray:none;stroke-opacity:1" transform="matrix(1,0,0,1,81.557198,-105.50975)"
          d="M 232.82806 267.19596 v -8.14524" />
    <path id="grille-64" style="fill:none;stroke:#404040;stroke-width:0.529167;stroke-linecap:butt;stroke-linejoin:miter;stroke-dasharray:none;stroke-opacity:1" transform="matrix(1,0,0,1,81.557198,-105.50975)"
          d="M 235.74184 267.19596 v -8.14524" />
    <path id="grille-65" style="fill:none;stroke:#404040;stroke-width:0.529167;stroke-linecap:butt;stroke-linejoin:miter;stroke-dasharray:none;stroke-opacity:1" transform="matrix(1,0,0,1,81.557198,-105.50975)"
          d="M 238.65562 267.19596 v -8.14524" />
    <path id="grille-66" style="fill:none;stroke:#404040;stroke-width:0.529167;stroke-linecap:butt;stroke-linejoin:miter;stroke-dasharray:none;stroke-opacity:1" transform="matrix(1,0,0,1,81.557198,-105.50975)"
          d="M 241.5694 267.19596 v -8.14524" />
    <path id="grille-67" style="fill:none;stroke:#404040;stroke-width:0.529167;stroke-linecap:butt;stroke-linejoin:miter;stroke-dasharray:none;stroke-opacity:1" transform="matrix(1,0,0,1,81.557198,-105.50975)"
          d="M 244.48318 267.19596 v -8.14524" />
    <path id="grille-68" style="fill:none;stroke:#404040;stroke-width:0.529167;stroke-linecap:butt;stroke-linejoin:miter;stroke-dasharray:none;stroke-opacity:1" transform="matrix(1,0,0,1,81.557198,-105.50975)"
          d="M 247.39697 267.19596 v -8.14524" />
    <path id="grille-69" style="fill:none;stroke:#404040;stroke-width:0.529167;stroke-linecap:butt;stroke-linejoin:miter;stroke-dasharray:none;stroke-opacity:1" transform="matrix(1,0,0,1,81.557198,-105.50975)"
          d="M 250.31075 267.19596 v -8.14524" />
    <path id="grille-70" style="fill:none;stroke:#404040;stroke-width:0.529167;stroke-linecap:butt;stroke-linejoin:miter;stroke-dasharray:none;stroke-opacity:1" transform="matrix(1,0,0,1,81.557198,-105.50975)"
          d="M 253.22453 267.19596 v -8.14524" />
    <path id="grille-71" style="fill:none;stroke:#404040;stroke-width:0.529167;stroke-linecap:butt;stroke-linejoin:miter;stroke-dasharray:none;stroke-opacity:1" transform="matrix(1,0,0,1,81.557198,-105.50975)"
          d="M 256.13831 267.19596 v -8.14524" />
    <path id="grille-72" style="fill:none;stroke:#404040;stroke-width:0.529167;stroke-linecap:butt;stroke-linejoin:miter;stroke-dasharray:none;stroke-opacity:1" transform="matrix(1,0,0,1,81.557198,-105.50975)"
          d="M 259.05209 267.19596 v -8.14524" />
    <path id="grille-73" style="fill:none;stroke:#404040;stroke-width:0.529167;stroke-linecap:butt;stroke-linejoin:miter;stroke-dasharray:none;stroke-opacity:1" transform="matrix(1,0,0,1,81.557198,-105.50975)"
          d="M 261.96587 267.19596 v -8.14524" />
    <path id="grille-74" style="fill:none;stroke:#404040;stroke-width:0.529167;stroke-linecap:butt;stroke-linejoin:miter;stroke-dasharray:none;stroke-opacity:1" transform="matrix(1,0,0,1,81.557198,-105.50975)"
          d="M 264.87965 267.19596 v -8.14524" />
    <path id="grille-75" style="fill:none;stroke:#404040;stroke-width:0.529167;stroke-linecap:butt;stroke-linejoin:miter;stroke-dasharray:none;stroke-opacity:1" transform="matrix(1,0,0,1,81.557198,-105.50975)"
          d="M 267.79343 267.19596 v -8.14524" />
    <path id="grille-76" style="fill:none;stroke:#404040;stroke-width:0.529167;stroke-linecap:butt;stroke-linejoin:miter;stroke-dasharray:none;stroke-opacity:1" transform="matrix(1,0,0,1,81.557198,-105.50975)"
          d="M 270.70721 267.19596 v -8.14524" />
    <path id="grille-77" style="fill:none;stroke:#404040;stroke-width:0.529167;stroke-linecap:butt;stroke-linejoin:miter;stroke-dasharray:none;stroke-opacity:1" transform="matrix(1,0,0,1,81.557198,-105.50975)"
          d="M 273.621 267.19596 v -8.14524" />
    <path id="grille-78" style="fill:none;stroke:#404040;stroke-width:0.529167;stroke-linecap:butt;stroke-linejoin:miter;stroke-dasharray:none;stroke-opacity:1" transform="matrix(1,0,0,1,81.557198,-105.50975)"
          d="M 276.53478 267.19596 v -8.14524" />
    <path id="grille-79" style="fill:none;stroke:#404040;stroke-width:0.529167;stroke-linecap:butt;stroke-linejoin:miter;stroke-dasharray:none;stroke-opacity:1" transform="matrix(1,0,0,1,81.557198,-105.50975)"
          d="M 279.44856 267.19596 v -8.14524" />
    <path id="grille-80" style="fill:none;stroke:#404040;stroke-width:0.529167;stroke-linecap:butt;stroke-linejoin:miter;stroke-dasharray:none;stroke-opacity:1" transform="matrix(1,0,0,1,81.557198,-105.50975)"
          d="M 282.36234 267.19596 v -8.14524" />
    <path id="grille-81" style="fill:none;stroke:#404040;stroke-width:0.529167;stroke-linecap:butt;stroke-linejoin:miter;stroke-dasharray:none;stroke-opacity:1" transform="matrix(1,0,0,1,81.557198,-105.50975)"
          d="M 285.27612 267.19596 v -8.14524" />
    <path id="grille-82" style="fill:none;stroke:#404040;stroke-width:0.529167;stroke-linecap:butt;stroke-linejoin:miter;stroke-dasharray:none;stroke-opacity:1" transform="matrix(1,0,0,1,81.557198,-105.50975)"
          d="M 323.15526 267.19596 v -8.14524" />
    <path id="grille-83" style="fill:none;stroke:#404040;stroke-width:0.529167;stroke-linecap:butt;stroke-linejoin:miter;stroke-dasharray:none;stroke-opacity:1" transform="matrix(1,0,0,1,81.557198,-105.50975)"
          d="M 326.06905 267.19596 v -8.14524" />
    <path id="grille-84" style="fill:none;stroke:#404040;stroke-width:0.529167;stroke-linecap:butt;stroke-linejoin:miter;stroke-dasharray:none;stroke-opacity:1" transform="matrix(1,0,0,1,81.557198,-105.50975)"
          d="M 328.98284 267.19596 v -8.14524" />
    <path id="grille-85" style="fill:none;stroke:#404040;stroke-width:0.529167;stroke-linecap:butt;stroke-linejoin:miter;stroke-dasharray:none;stroke-opacity:1" transform="matrix(1,0,0,1,81.557198,-105.50975)"
          d="M 331.89662 267.19596 v -8.14524" />
    <path id="grille-86" style="fill:none;stroke:#404040;stroke-width:0.529167;stroke-linecap:butt;stroke-linejoin:miter;stroke-dasharray:none;stroke-opacity:1" transform="matrix(1,0,0,1,81.557198,-105.50975)"
          d="M 334.8104 267.19596 v -8.14524" />
    <path id="grille-87" style="fill:none;stroke:#404040;stroke-width:0.529167;stroke-linecap:butt;stroke-linejoin:miter;stroke-dasharray:none;stroke-opacity:1" transform="matrix(1,0,0,1,81.557198,-105.50975)"
          d="M 337.72418 267.19596 v -8.14524" />
    <path id="grille-88" style="fill:none;stroke:#404040;stroke-width:0.529167;stroke-linecap:butt;stroke-linejoin:miter;stroke-dasharray:none;stroke-opacity:1" transform="matrix(1,0,0,1,81.557198,-105.50975)"
          d="M 340.63796 267.19596 v -8.14524" />
    <path id="grille-89" style="fill:none;stroke:#404040;stroke-width:0.529167;stroke-linecap:butt;stroke-linejoin:miter;stroke-dasharray:none;stroke-opacity:1" transform="matrix(1,0,0,1,81.557198,-105.50975)"
          d="M -53.295619 267.05772 l 3.320728 -3.07265 l 0.0062 -2.63687 l -3.31556 -2.20288 z" />
    <path id="grille-90" style="fill:none;stroke:#404040;stroke-width:0.529167;stroke-linecap:butt;stroke-linejoin:miter;stroke-dasharray:none;stroke-opacity:1" transform="matrix(1,0,0,1,81.557198,-105.50975)"
          d="M 27.051415 259.14532 l -3.31556 2.20288 l 0.0062 2.63687 l 3.320728 3.07265 z" />
    <path id="grille-91" style="fill:none;stroke:#404040;stroke-width:0.529167;stroke-linecap:butt;stroke-linejoin:miter;stroke-dasharray:none;stroke-opacity:1" transform="matrix(1,0,0,1,81.557198,-105.50975)"
          d="M 288.18989 267.19596 v -7.79784" />
    <path id="grille-92" style="fill:none;stroke:#404040;stroke-width:0.529167;stroke-linecap:butt;stroke-linejoin:miter;stroke-dasharray:none;stroke-opacity:1" transform="matrix(1,0,0,1,81.557198,-105.50975)"
          d="M 320.24148 267.19596 v -6.92077" />
    <path id="grille-93" style="fill:none;stroke:#404040;stroke-width:0.529167;stroke-linecap:butt;stroke-linejoin:miter;stroke-dasharray:none;stroke-opacity:1" transform="matrix(1,0,0,1,81.557198,-105.50975)"
          d="M 291.10367 267.19596 v -6.42191" />
    <path id="grille-94" style="fill:none;stroke:#404040;stroke-width:0.529167;stroke-linecap:butt;stroke-linejoin:miter;stroke-dasharray:none;stroke-opacity:1" transform="matrix(1,0,0,1,81.557198,-105.50975)"
          d="M 317.3277 267.19596 v -5.72653" />
    <path id="grille-95" style="fill:none;stroke:#404040;stroke-width:0.529167;stroke-linecap:butt;stroke-linejoin:miter;stroke-dasharray:none;stroke-opacity:1" transform="matrix(1,0,0,1,81.557198,-105.50975)"
          d="M 294.01745 267.19596 v -5.30326" />
    <path id="grille-96" style="fill:none;stroke:#404040;stroke-width:0.529167;stroke-linecap:butt;stroke-linejoin:miter;stroke-dasharray:none;stroke-opacity:1" transform="matrix(1,0,0,1,81.557198,-105.50975)"
          d="M 314.41392 267.19596 v -4.77416" />
    <path id="grille-97" style="fill:none;stroke:#404040;stroke-width:0.529167;stroke-linecap:butt;stroke-linejoin:miter;stroke-dasharray:none;stroke-opacity:1" transform="matrix(1,0,0,1,81.557198,-105.50975)"
          d="M 296.93123 267.19596 v -4.47182" />
    <path id="grille-98" style="fill:none;stroke:#404040;stroke-width:0.529167;stroke-linecap:butt;stroke-linejoin:miter;stroke-dasharray:none;stroke-opacity:1" transform="matrix(1,0,0,1,81.557198,-105.50975)"
          d="M 311.50014 267.19596 v -4.10902" />
    <path id="grille-99" style="fill:none;stroke:#404040;stroke-width:0.529167;stroke-linecap:butt;stroke-linejoin:miter;stroke-dasharray:none;stroke-opacity:1" transform="matrix(1,0,0,1,81.557198,-105.50975)"
          d="M 299.84502 267.19596 v -3.92761" />
    <path id="grille-100" style="fill:none;stroke:#404040;stroke-width:0.529167;stroke-linecap:butt;stroke-linejoin:miter;stroke-dasharray:none;stroke-opacity:1" transform="matrix(1,0,0,1,81.557198,-105.50975)"
          d="M 308.58636 267.19596 v -3.71598" />
    <path id="grille-101" style="fill:none;stroke:#404040;stroke-width:0.529167;stroke-linecap:butt;stroke-linejoin:miter;stroke-dasharray:none;stroke-opacity:1" transform="matrix(1,0,0,1,81.557198,-105.50975)"
          d="M 302.7588 267.19596 v -3.59504" />
    <path id="grille-102" style="fill:none;stroke:#404040;stroke-width:0.529167;stroke-linecap:butt;stroke-linejoin:miter;stroke-dasharray:none;stroke-opacity:1" transform="matrix(1,0,0,1,81.557198,-105.50975)"
          d="M 305.67258 267.19596 v -3.50434" />
  </g>
</svg>
